<svg width="20" height="20" viewBox="0 0 20 20" fill="none" xmlns="http://www.w3.org/2000/svg">
<path d="M5 9.16699C5 6.80997 5 5.63146 5.73223 4.89923C6.46447 4.16699 7.64297 4.16699 10 4.16699H12.5C14.857 4.16699 16.0355 4.16699 16.7677 4.89923C17.5 5.63146 17.5 6.80997 17.5 9.16699V13.3337C17.5 15.6907 17.5 16.8692 16.7677 17.6014C16.0355 18.3337 14.857 18.3337 12.5 18.3337H10C7.64297 18.3337 6.46447 18.3337 5.73223 17.6014C5 16.8692 5 15.6907 5 13.3337V9.16699Z" stroke="white"/>
<path d="M5 15.8337C3.61929 15.8337 2.5 14.7144 2.5 13.3337V8.33366C2.5 5.19096 2.5 3.61962 3.47631 2.6433C4.45262 1.66699 6.02397 1.66699 9.16667 1.66699H12.5C13.8807 1.66699 15 2.78628 15 4.16699" stroke="white"/>
</svg>
