<svg width="143" height="32" viewBox="0 0 143 32" fill="none" xmlns="http://www.w3.org/2000/svg">
<path d="M27.7332 29H22.5332V3H27.7318L27.7332 29Z" fill="white"/>
<path d="M11.5556 29H0V23.2236H11.5556V29Z" fill="#D7DF23"/>
<path d="M17.3333 23.222L11.5556 23.2236V8.77795H17.3333V23.222Z" fill="#D7DF23"/>
<path d="M11.5556 3V8.77795H0V3H11.5556Z" fill="#D7DF23"/>
<path d="M41.0732 23V9H45.6932C47.3598 9 48.7198 9.29333 49.7732 9.88C50.8398 10.4533 51.6265 11.2667 52.1332 12.32C52.6398 13.3733 52.8932 14.6067 52.8932 16.02C52.8932 17.4867 52.6198 18.7467 52.0732 19.8C51.5398 20.84 50.7398 21.6333 49.6732 22.18C48.6065 22.7267 47.2798 23 45.6932 23H41.0732ZM43.3532 21.06H45.6132C46.8398 21.06 47.8132 20.86 48.5332 20.46C49.2665 20.06 49.7865 19.48 50.0932 18.72C50.3998 17.96 50.5532 17.06 50.5532 16.02C50.5532 14.2733 50.1532 12.9867 49.3532 12.16C48.5532 11.3333 47.3065 10.92 45.6132 10.92H43.3532V21.06ZM59.4566 23.24C58.4566 23.24 57.5833 23.02 56.8366 22.58C56.0899 22.1267 55.5033 21.5133 55.0766 20.74C54.6633 19.9533 54.4566 19.0533 54.4566 18.04C54.4566 16.9867 54.6633 16.0733 55.0766 15.3C55.5033 14.5267 56.0899 13.9267 56.8366 13.5C57.5966 13.06 58.4766 12.84 59.4766 12.84C60.4499 12.84 61.2966 13.0533 62.0166 13.48C62.7366 13.8933 63.3033 14.4667 63.7166 15.2C64.1299 15.9333 64.3366 16.7667 64.3366 17.7C64.3366 17.8867 64.3299 18.0533 64.3166 18.2C64.3166 18.3467 64.3033 18.5067 64.2766 18.68H56.7366C56.7766 19.2 56.9099 19.6667 57.1366 20.08C57.3633 20.48 57.6699 20.7933 58.0566 21.02C58.4566 21.2467 58.9099 21.36 59.4166 21.36C59.9633 21.36 60.4233 21.24 60.7966 21C61.1833 20.76 61.4833 20.4133 61.6966 19.96H64.0766C63.8899 20.56 63.5899 21.1067 63.1766 21.6C62.7766 22.0933 62.2633 22.4933 61.6366 22.8C61.0233 23.0933 60.2966 23.24 59.4566 23.24ZM56.7566 17.1H62.0166C62.0033 16.3667 61.7433 15.7867 61.2366 15.36C60.7299 14.9333 60.1233 14.72 59.4166 14.72C58.7766 14.72 58.1966 14.9133 57.6766 15.3C57.1699 15.6867 56.8633 16.2867 56.7566 17.1ZM70.5889 23.24C69.6156 23.24 68.7556 23.02 68.0089 22.58C67.2623 22.14 66.6756 21.5333 66.2489 20.76C65.8223 19.9733 65.6089 19.0667 65.6089 18.04C65.6089 17.0267 65.8156 16.1333 66.2289 15.36C66.6423 14.5733 67.2223 13.96 67.9689 13.52C68.7156 13.0667 69.5889 12.84 70.5889 12.84C71.7889 12.84 72.7956 13.1467 73.6089 13.76C74.4356 14.36 74.9823 15.22 75.2489 16.34H72.8489C72.7289 15.8733 72.4689 15.4933 72.0689 15.2C71.6689 14.9067 71.1689 14.76 70.5689 14.76C69.9689 14.76 69.4756 14.9133 69.0889 15.22C68.7023 15.5133 68.4089 15.9133 68.2089 16.42C68.0223 16.9133 67.9289 17.4533 67.9289 18.04C67.9289 18.6533 68.0289 19.2067 68.2289 19.7C68.4289 20.1933 68.7223 20.5867 69.1089 20.88C69.5089 21.1733 69.9956 21.32 70.5689 21.32C71.1556 21.32 71.6423 21.1867 72.0289 20.92C72.4289 20.64 72.7023 20.2467 72.8489 19.74H75.2489C75.0889 20.46 74.7889 21.0867 74.3489 21.62C73.9223 22.14 73.3889 22.54 72.7489 22.82C72.1089 23.1 71.3889 23.24 70.5889 23.24ZM80.1436 23.24C79.5303 23.24 78.957 23.1267 78.4236 22.9C77.9036 22.66 77.4836 22.3133 77.1636 21.86C76.857 21.4067 76.7036 20.8667 76.7036 20.24C76.7036 19.4933 76.8903 18.8867 77.2636 18.42C77.637 17.9533 78.1436 17.6133 78.7836 17.4C79.4236 17.1733 80.1303 17.06 80.9036 17.06H83.3836C83.3836 16.5267 83.297 16.0933 83.1236 15.76C82.9503 15.4133 82.7103 15.16 82.4036 15C82.097 14.8267 81.737 14.74 81.3236 14.74C80.7903 14.74 80.3236 14.86 79.9236 15.1C79.5236 15.34 79.277 15.7333 79.1836 16.28H76.9036C76.9703 15.56 77.2103 14.9467 77.6236 14.44C78.0503 13.92 78.5903 13.5267 79.2436 13.26C79.897 12.98 80.597 12.84 81.3436 12.84C82.3036 12.84 83.097 13.02 83.7236 13.38C84.3636 13.7267 84.8436 14.2133 85.1636 14.84C85.497 15.4667 85.6636 16.1933 85.6636 17.02V20.04C85.677 20.4 85.7636 20.66 85.9236 20.82C86.097 20.98 86.3636 21.0667 86.7236 21.08V23C86.1636 23 85.6836 22.94 85.2836 22.82C84.8836 22.7 84.5503 22.52 84.2836 22.28C84.0303 22.04 83.8236 21.7267 83.6636 21.34C83.3436 21.8733 82.8703 22.3267 82.2436 22.7C81.6303 23.06 80.9303 23.24 80.1436 23.24ZM80.7236 21.4C81.2436 21.4 81.697 21.28 82.0836 21.04C82.4836 20.7867 82.797 20.4533 83.0236 20.04C83.2636 19.6133 83.3836 19.1467 83.3836 18.64V18.58H81.0636C80.717 18.58 80.3836 18.6267 80.0636 18.72C79.7436 18.8133 79.4903 18.9667 79.3036 19.18C79.117 19.38 79.0236 19.66 79.0236 20.02C79.0236 20.5 79.1903 20.8533 79.5236 21.08C79.857 21.2933 80.257 21.4 80.7236 21.4ZM92.0974 23.24C91.3374 23.24 90.6307 23.1067 89.9774 22.84C89.3374 22.56 88.8107 22.1667 88.3974 21.66C87.9974 21.1533 87.7707 20.56 87.7174 19.88H89.9974C90.0774 20.3467 90.304 20.7267 90.6774 21.02C91.064 21.3 91.5307 21.44 92.0774 21.44C92.5707 21.44 92.9774 21.3333 93.2974 21.12C93.6307 20.9067 93.7974 20.6133 93.7974 20.24C93.7974 19.92 93.684 19.6733 93.4574 19.5C93.2307 19.3133 92.9507 19.1733 92.6174 19.08C92.284 18.9733 91.9374 18.88 91.5774 18.8C90.9507 18.6533 90.364 18.4733 89.8174 18.26C89.284 18.0467 88.8507 17.7467 88.5174 17.36C88.184 16.9733 88.0174 16.4667 88.0174 15.84C88.0174 15.2133 88.1907 14.68 88.5374 14.24C88.884 13.7867 89.344 13.44 89.9174 13.2C90.504 12.96 91.1574 12.84 91.8774 12.84C92.9707 12.84 93.8774 13.1133 94.5974 13.66C95.3307 14.2067 95.7374 15.0067 95.8174 16.06H93.6574C93.604 15.6067 93.4107 15.26 93.0774 15.02C92.7574 14.78 92.3374 14.66 91.8174 14.66C91.364 14.66 90.984 14.7467 90.6774 14.92C90.384 15.0933 90.2374 15.3733 90.2374 15.76C90.2374 16.0267 90.344 16.2467 90.5574 16.42C90.784 16.5933 91.064 16.74 91.3974 16.86C91.744 16.9667 92.084 17.06 92.4174 17.14C93.0974 17.3 93.704 17.4867 94.2374 17.7C94.7707 17.9133 95.1907 18.2133 95.4974 18.6C95.8174 18.9867 95.984 19.5133 95.9974 20.18C95.9974 20.82 95.824 21.3667 95.4774 21.82C95.1307 22.2733 94.664 22.6267 94.0774 22.88C93.4907 23.12 92.8307 23.24 92.0974 23.24ZM101.47 23C100.457 23 99.6838 22.7533 99.1505 22.26C98.6172 21.7667 98.3505 20.98 98.3505 19.9V14.98H96.9305V13.08H98.3505V10.68H100.63V13.08H103.05V14.98H100.63V19.92C100.63 20.3733 100.737 20.6867 100.95 20.86C101.164 21.02 101.484 21.1 101.91 21.1H103.05V23H101.47ZM110.155 23V9H114.775C116.442 9 117.802 9.29333 118.855 9.88C119.922 10.4533 120.709 11.2667 121.215 12.32C121.722 13.3733 121.975 14.6067 121.975 16.02C121.975 17.4867 121.702 18.7467 121.155 19.8C120.622 20.84 119.822 21.6333 118.755 22.18C117.689 22.7267 116.362 23 114.775 23H110.155ZM112.435 21.06H114.695C115.922 21.06 116.895 20.86 117.615 20.46C118.349 20.06 118.869 19.48 119.175 18.72C119.482 17.96 119.635 17.06 119.635 16.02C119.635 14.2733 119.235 12.9867 118.435 12.16C117.635 11.3333 116.389 10.92 114.695 10.92H112.435V21.06ZM124.179 23V9H126.459V23H124.179ZM129.14 23V9H133.76C135.426 9 136.786 9.29333 137.84 9.88C138.906 10.4533 139.693 11.2667 140.2 12.32C140.706 13.3733 140.96 14.6067 140.96 16.02C140.96 17.4867 140.686 18.7467 140.14 19.8C139.606 20.84 138.806 21.6333 137.74 22.18C136.673 22.7267 135.346 23 133.76 23H129.14ZM131.42 21.06H133.68C134.906 21.06 135.88 20.86 136.6 20.46C137.333 20.06 137.853 19.48 138.16 18.72C138.466 17.96 138.62 17.06 138.62 16.02C138.62 14.2733 138.22 12.9867 137.42 12.16C136.62 11.3333 135.373 10.92 133.68 10.92H131.42V21.06Z" fill="#FEFEFE"/>
</svg>
