<svg width="132" height="132" viewBox="0 0 132 132" fill="none" xmlns="http://www.w3.org/2000/svg">
<rect width="132" height="132" rx="66" fill="url(#paint0_linear_512_181)" fill-opacity="0.1"/>
<rect x="0.5" y="0.5" width="131" height="131" rx="65.5" stroke="url(#paint1_linear_512_181)" stroke-opacity="0.05"/>
<rect x="8" y="8" width="116" height="116" rx="58" fill="url(#paint2_linear_512_181)" fill-opacity="0.15"/>
<rect x="8.5" y="8.5" width="115" height="115" rx="57.5" stroke="url(#paint3_linear_512_181)" stroke-opacity="0.15"/>
<rect x="16" y="16" width="100" height="100" rx="50" fill="url(#paint4_linear_512_181)" fill-opacity="0.2"/>
<rect x="16.5" y="16.5" width="99" height="99" rx="49.5" stroke="url(#paint5_linear_512_181)" stroke-opacity="0.2"/>
<g filter="url(#filter0_i_512_181)">
<rect x="26" y="26" width="80" height="80" rx="40" fill="url(#paint6_linear_512_181)" fill-opacity="0.2"/>
<rect x="26.5" y="26.5" width="79" height="79" rx="39.5" stroke="url(#paint7_linear_512_181)" stroke-opacity="0.2"/>
<path d="M79.7177 77.928H74.1448V53H79.7163L79.7177 77.928Z" fill="white"/>
<path d="M64.143 78.0709H53V72.5009H64.143V78.0709Z" fill="#D7DF23"/>
<path d="M69.7145 72.4995L64.143 72.5009V58.5715H69.7145V72.4995Z" fill="#D7DF23"/>
<path d="M64.143 53V58.5715H53V53H64.143Z" fill="#D7DF23"/>
</g>
<defs>
<filter id="filter0_i_512_181" x="6" y="6" width="120" height="120" filterUnits="userSpaceOnUse" color-interpolation-filters="sRGB">
<feFlood flood-opacity="0" result="BackgroundImageFix"/>
<feBlend mode="normal" in="SourceGraphic" in2="BackgroundImageFix" result="shape"/>
<feColorMatrix in="SourceAlpha" type="matrix" values="0 0 0 0 0 0 0 0 0 0 0 0 0 0 0 0 0 0 127 0" result="hardAlpha"/>
<feOffset dy="4"/>
<feGaussianBlur stdDeviation="2"/>
<feComposite in2="hardAlpha" operator="arithmetic" k2="-1" k3="1"/>
<feColorMatrix type="matrix" values="0 0 0 0 0.862745 0 0 0 0 0.988235 0 0 0 0 0.211765 0 0 0 0.2 0"/>
<feBlend mode="normal" in2="shape" result="effect1_innerShadow_512_181"/>
</filter>
<linearGradient id="paint0_linear_512_181" x1="66" y1="-35.4" x2="66" y2="166.2" gradientUnits="userSpaceOnUse">
<stop stop-color="#DCFC36"/>
<stop offset="0.793314" stop-color="#DCFC36" stop-opacity="0"/>
</linearGradient>
<linearGradient id="paint1_linear_512_181" x1="66" y1="0" x2="66" y2="132" gradientUnits="userSpaceOnUse">
<stop stop-color="#F6FECD"/>
<stop offset="1" stop-color="#F6FECD" stop-opacity="0"/>
</linearGradient>
<linearGradient id="paint2_linear_512_181" x1="66" y1="-23.1091" x2="66" y2="154.055" gradientUnits="userSpaceOnUse">
<stop stop-color="#DCFC36"/>
<stop offset="0.793314" stop-color="#DCFC36" stop-opacity="0"/>
</linearGradient>
<linearGradient id="paint3_linear_512_181" x1="66" y1="8" x2="66" y2="124" gradientUnits="userSpaceOnUse">
<stop stop-color="#F6FECD"/>
<stop offset="1" stop-color="#F6FECD" stop-opacity="0"/>
</linearGradient>
<linearGradient id="paint4_linear_512_181" x1="66" y1="-10.8182" x2="66" y2="141.909" gradientUnits="userSpaceOnUse">
<stop stop-color="#DCFC36"/>
<stop offset="0.793314" stop-color="#DCFC36" stop-opacity="0"/>
</linearGradient>
<linearGradient id="paint5_linear_512_181" x1="66" y1="16" x2="66" y2="116" gradientUnits="userSpaceOnUse">
<stop stop-color="#F6FECD"/>
<stop offset="1" stop-color="#F6FECD" stop-opacity="0"/>
</linearGradient>
<linearGradient id="paint6_linear_512_181" x1="66" y1="-17.75" x2="66" y2="126.727" gradientUnits="userSpaceOnUse">
<stop stop-color="#DCFC36"/>
<stop offset="0.869661" stop-color="#DCFC36" stop-opacity="0"/>
</linearGradient>
<linearGradient id="paint7_linear_512_181" x1="66" y1="26" x2="66" y2="106" gradientUnits="userSpaceOnUse">
<stop stop-color="#F6FECD"/>
<stop offset="1" stop-color="#F6FECD" stop-opacity="0"/>
</linearGradient>
</defs>
</svg>
